<svg xmlns="http://www.w3.org/2000/svg" width="1400" height="820" viewBox="0 0 1400 820">
  <defs>
    <linearGradient id="bg" x1="0" y1="0" x2="1" y2="1">
      <stop offset="0" stop-color="#eaf2ff"/>
      <stop offset="1" stop-color="#ffffff"/>
    </linearGradient>
    <linearGradient id="card" x1="0" y1="0" x2="1" y2="1">
      <stop offset="0" stop-color="#ffffff"/>
      <stop offset="1" stop-color="#f4f7ff"/>
    </linearGradient>
  </defs>

  <rect x="0" y="0" width="1400" height="820" fill="url(#bg)"/>

  <!-- Browser chrome -->
  <rect x="80" y="70" width="1240" height="680" rx="22" fill="#ffffff" stroke="rgba(0,0,0,0.18)"/>
  <rect x="80" y="70" width="1240" height="64" rx="22" fill="#f8fafc" stroke="rgba(0,0,0,0.12)"/>

  <circle cx="122" cy="102" r="8" fill="#ef4444"/>
  <circle cx="148" cy="102" r="8" fill="#f59e0b"/>
  <circle cx="174" cy="102" r="8" fill="#22c55e"/>

  <rect x="230" y="88" width="950" height="28" rx="14" fill="#ffffff" stroke="rgba(0,0,0,0.12)"/>
  <text x="252" y="107" font-family="ui-sans-serif,system-ui,Segoe UI,Roboto,Arial" font-size="13" fill="rgba(31,41,55,0.65)">
    https://example.com/search?city=caracas&amp;type=apartment
  </text>

  <!-- Content area split -->
  <rect x="112" y="156" width="790" height="560" rx="18" fill="#eef2ff" stroke="rgba(0,0,0,0.10)"/>
  <rect x="928" y="156" width="360" height="560" rx="18" fill="#ffffff" stroke="rgba(0,0,0,0.10)"/>

  <!-- Map placeholder -->
  <text x="140" y="196" font-family="ui-sans-serif,system-ui,Segoe UI,Roboto,Arial" font-size="16" font-weight="800" fill="rgba(31,41,55,0.75)">
    Map preview
  </text>
  <path d="M160 240 C 260 180, 340 320, 440 260 C 520 210, 620 310, 720 240" fill="none" stroke="rgba(0,106,255,0.55)" stroke-width="4"/>
  <circle cx="350" cy="320" r="10" fill="#006aff" opacity="0.9"/>
  <circle cx="520" cy="280" r="10" fill="#006aff" opacity="0.55"/>
  <circle cx="640" cy="340" r="10" fill="#006aff" opacity="0.55"/>

  <!-- Results cards -->
  <text x="956" y="196" font-family="ui-sans-serif,system-ui,Segoe UI,Roboto,Arial" font-size="16" font-weight="800" fill="rgba(31,41,55,0.75)">
    Results
  </text>

  <g transform="translate(956,220)">
    <rect x="0" y="0" width="304" height="120" rx="16" fill="url(#card)" stroke="rgba(0,0,0,0.12)"/>
    <rect x="14" y="14" width="92" height="92" rx="14" fill="#e5e7eb"/>
    <rect x="120" y="18" width="160" height="14" rx="7" fill="rgba(31,41,55,0.25)"/>
    <rect x="120" y="42" width="120" height="12" rx="6" fill="rgba(31,41,55,0.18)"/>
    <rect x="120" y="62" width="150" height="12" rx="6" fill="rgba(31,41,55,0.14)"/>
    <rect x="120" y="82" width="100" height="12" rx="6" fill="rgba(31,41,55,0.12)"/>
  </g>

  <g transform="translate(956,356)">
    <rect x="0" y="0" width="304" height="120" rx="16" fill="url(#card)" stroke="rgba(0,0,0,0.12)"/>
    <rect x="14" y="14" width="92" height="92" rx="14" fill="#e5e7eb"/>
    <rect x="120" y="18" width="140" height="14" rx="7" fill="rgba(31,41,55,0.25)"/>
    <rect x="120" y="42" width="120" height="12" rx="6" fill="rgba(31,41,55,0.18)"/>
    <rect x="120" y="62" width="170" height="12" rx="6" fill="rgba(31,41,55,0.14)"/>
    <rect x="120" y="82" width="120" height="12" rx="6" fill="rgba(31,41,55,0.12)"/>
  </g>

  <g transform="translate(956,492)">
    <rect x="0" y="0" width="304" height="120" rx="16" fill="url(#card)" stroke="rgba(0,0,0,0.12)"/>
    <rect x="14" y="14" width="92" height="92" rx="14" fill="#e5e7eb"/>
    <rect x="120" y="18" width="150" height="14" rx="7" fill="rgba(31,41,55,0.25)"/>
    <rect x="120" y="42" width="100" height="12" rx="6" fill="rgba(31,41,55,0.18)"/>
    <rect x="120" y="62" width="150" height="12" rx="6" fill="rgba(31,41,55,0.14)"/>
    <rect x="120" y="82" width="110" height="12" rx="6" fill="rgba(31,41,55,0.12)"/>
  </g>

  <!-- Footer hint -->
  <text x="80" y="790" font-family="ui-sans-serif,system-ui,Segoe UI,Roboto,Arial" font-size="12" fill="rgba(31,41,55,0.55)">
    Sample screenshot placeholder (non-production)
  </text>
</svg>
